<svg width="28" height="28" viewBox="0 0 28 28" fill="none" xmlns="http://www.w3.org/2000/svg">
    <path d="M13.9998,0.6667C6.6478,0.6667 0.6665,6.648 0.6665,14C0.6665,21.352 6.6478,27.3333 13.9998,27.3333C21.3518,27.3333 27.3332,21.352 27.3332,14C27.3332,6.648 21.3518,0.6667 13.9998,0.6667ZM13.9998,24.6667C8.1185,24.6667 3.3332,19.8813 3.3332,14C3.3332,8.1187 8.1185,3.3333 13.9998,3.3333C19.8812,3.3333 24.6665,8.1187 24.6665,14C24.6665,19.8813 19.8812,24.6667 13.9998,24.6667Z" fill="white"/>
    <path d="M11.3318,16.116L8.2665,13.056L6.3838,14.944L11.3345,19.884L20.9425,10.276L19.0571,8.3907L11.3318,16.116Z" fill="white"/>
</svg>
