<svg width="19" height="20" viewBox="0 0 19 20" fill="none" xmlns="http://www.w3.org/2000/svg">
    <g clip-path="url(#clip0)">
        <path d="M9.61436 13.7851C9.61436 13.7851 12.5222 14.5036 14.8258 12.6867C17.1294 10.8698 17.0571 8.12982 17.0571 8.12982C17.0571 8.12982 14.4506 7.3154 12.0831 9.04808C9.71569 10.7808 9.61436 13.7851 9.61436 13.7851Z" fill="#ffffff"/>
        <path d="M9.60485 15.1554C9.60485 15.1554 10.0798 17.2108 11.9422 18.0829C13.8046 18.9551 15.4907 18.0411 15.4907 18.0411C15.4907 18.0411 15.1741 16.1447 13.3412 15.2052C11.5084 14.2657 9.60485 15.1554 9.60485 15.1554Z" fill="#ffffff"/>
        <path d="M13.9867 14.2657C13.9867 14.2657 14.992 15.388 16.4591 15.2863C17.9262 15.1845 18.6667 14.0262 18.6667 14.0262C18.6667 14.0262 17.8133 12.9495 16.3446 12.9983C14.8759 13.047 13.9867 14.2657 13.9867 14.2657Z" fill="#ffffff"/>
        <path d="M12.5164 7.18188C12.5164 7.18188 10.9664 4.60935 8.05752 4.25857C5.14862 3.9078 3.2704 5.89694 3.2704 5.89694C3.2704 5.89694 4.54014 8.32322 7.43426 8.77891C10.3284 9.2346 12.5164 7.18188 12.5164 7.18188Z" fill="#ffffff"/>
        <path d="M13.4874 6.21963C13.4874 6.21963 14.5999 4.42973 13.8964 2.4904C13.193 0.551067 11.3575 0 11.3575 0C11.3575 0 10.2492 1.56736 10.8825 3.53106C11.5158 5.49477 13.4874 6.21963 13.4874 6.21963Z" fill="#ffffff"/>
        <path d="M9.76318 3.73824C9.76318 3.73824 9.84234 2.23076 8.73304 1.26056C7.62373 0.290367 6.28538 0.584447 6.28538 0.584447C6.28538 0.584447 6.13023 1.95151 7.20417 2.96092C8.27812 3.97033 9.76318 3.73824 9.76318 3.73824Z" fill="#ffffff"/>
        <path d="M7.15457 10.7172C7.15457 10.7172 4.59081 12.2734 4.24197 15.1941C3.89314 18.1147 5.87322 20 5.87322 20C5.87322 20 8.28973 18.7283 8.74359 15.8198C9.19745 12.9114 7.15457 10.7172 7.15457 10.7172Z" fill="#ffffff"/>
        <path d="M6.1946 9.74063C6.1946 9.74063 4.41032 8.62419 2.48037 9.33051C0.550432 10.0368 0 11.8797 0 11.8797C0 11.8797 1.56105 12.9924 3.51685 12.3566C5.47266 11.7208 6.1946 9.74063 6.1946 9.74063Z" fill="#ffffff"/>
        <path d="M3.72426 13.4815C3.72426 13.4815 2.22284 13.4015 1.25708 14.5153C0.291316 15.6291 0.582101 16.9734 0.582101 16.9734C0.582101 16.9734 1.9442 17.1292 2.94954 16.0509C3.95488 14.9726 3.72426 13.4815 3.72426 13.4815Z" fill="#ffffff"/>
    </g>
    <defs>
        <clipPath id="clip0">
            <rect width="18.6667" height="20" fill="white"/>
        </clipPath>
    </defs>
</svg>