<svg width="24" height="24" viewBox="0 0 24 24" fill="none" xmlns="http://www.w3.org/2000/svg">
    <path d="M4 4V7H2V9H4V11H2V13H4V15H2V17H4V20C4 20.5304 4.21071 21.0391 4.58579 21.4142C4.96086 21.7893 5.46957 22 6 22H22V2H6C5.46957 2 4.96086 2.21071 4.58579 2.58579C4.21071 2.96086 4 3.46957 4 4ZM13 4.999C14.648 4.999 16 6.35 16 7.999C15.9971 8.79385 15.6801 9.55533 15.1182 10.1175C14.5562 10.6796 13.7948 10.9968 13 11C11.353 11 10 9.647 10 7.999C10 6.35 11.353 4.999 13 4.999ZM7 17.25C7 15.031 9.705 12.75 13 12.75C16.295 12.75 19 15.031 19 17.25V18H7V17.25Z" fill="#2D2D2D"/>
</svg>
