<svg width="24" height="24" viewBox="0 0 24 24" fill="none" xmlns="http://www.w3.org/2000/svg">
    <path d="M8 22C7.86864 22.0001 7.73855 21.9744 7.61716 21.9241C7.49578 21.8739 7.38548 21.8003 7.2926 21.7074C7.19971 21.6145 7.12606 21.5042 7.07585 21.3828C7.02564 21.2615 6.99987 21.1314 7 21V17H4C2.897 17 2 16.103 2 15V6C2 4.897 2.897 4 4 4H20C21.103 4 22 4.897 22 6V15C22 16.103 21.103 17 20 17H13.414L8.707 21.707C8.51951 21.8946 8.26519 21.9999 8 22ZM4 6V15H8C8.26522 15 8.51957 15.1054 8.70711 15.2929C8.89464 15.4804 9 15.7348 9 16V18.586L12.293 15.293C12.3857 15.2 12.4959 15.1262 12.6172 15.0759C12.7386 15.0256 12.8687 14.9998 13 15H20V6H4Z" fill="#ffffff"/>
</svg>