<svg width="24" height="24" viewBox="0 0 24 24" fill="none" xmlns="http://www.w3.org/2000/svg">
<path d="M14.428 12.157L15.448 12.833C18.069 14.572 19 17.242 19 19H21C21 16.867 20.047 13.971 17.447 11.828C18.168 10.8 18.549 9.612 18.535 8.393C18.517 6.858 17.862 5.396 16.69 4.277L15.31 5.723C16.1 6.479 16.524 7.41 16.536 8.416C16.548 9.458 16.106 10.479 15.294 11.293L14.428 12.157ZM9.5 4C7.294 4 5.5 5.794 5.5 8C5.5 10.206 7.294 12 9.5 12C11.706 12 13.5 10.206 13.5 8C13.5 5.794 11.706 4 9.5 4ZM9.5 10C8.397 10 7.5 9.103 7.5 8C7.5 6.897 8.397 6 9.5 6C10.603 6 11.5 6.897 11.5 8C11.5 9.103 10.603 10 9.5 10ZM4 19C4 16.794 5.794 15 8 15H11C13.206 15 15 16.794 15 19V20H17V19C17 15.691 14.309 13 11 13H8C4.691 13 2 15.691 2 19V20H4V19Z" fill="#2D2D2D"/>
</svg>
