<svg width="24" height="24" viewBox="0 0 24 24" fill="none" xmlns="http://www.w3.org/2000/svg">
<path d="M20 14.838V12C20 7.422 17.541 4.043 13.836 3.206C13.53 2.495 12.826 2 12 2C11.174 2 10.47 2.495 10.164 3.206C6.459 4.043 4 7.422 4 12V14.838L3.052 17.684C3.00196 17.8343 2.98832 17.9942 3.0122 18.1508C3.03608 18.3074 3.0968 18.456 3.18937 18.5845C3.28193 18.713 3.4037 18.8177 3.54463 18.8899C3.68556 18.9621 3.84164 18.9999 4 19H9C9 20.664 10.336 22 12 22C13.664 22 15 20.664 15 19H20.02C20.1951 19 20.3671 18.9541 20.5188 18.8668C20.6705 18.7795 20.7967 18.6539 20.8847 18.5025C20.9726 18.3512 21.0193 18.1794 21.0201 18.0043C21.0209 17.8293 20.9757 17.6571 20.889 17.505L20 14.838ZM5.388 17L5.949 15.316C5.98237 15.214 5.99957 15.1073 6 15V12C6 7.748 8.355 5 12 5C15.645 5 18 7.748 18 12V15C18 15.107 18.018 15.214 18.052 15.316L18.612 17H5.388Z" fill="white"/>
</svg>
