<svg width="24" height="24" viewBox="0 0 24 24" fill="none" xmlns="http://www.w3.org/2000/svg">
<path d="M17.004 5H9C7.162 5 5.414 5.737 4.076 7.076C2.737 8.415 2 10.163 2 12C2 13.838 2.737 15.586 4.076 16.924C5.414 18.263 7.162 19 9 19H17V17H9C7.697 17 6.45 16.471 5.49 15.51C4.529 14.55 4 13.303 4 12C4 10.698 4.529 9.451 5.49 8.49C6.45 7.529 7.697 7 9 7H17V6L17.001 7H17.004C17.794 7 18.543 7.314 19.113 7.886C19.684 8.457 19.999 9.208 20 10.002C19.9997 10.3947 19.9214 10.7835 19.7696 11.1457C19.6179 11.5079 19.3957 11.8363 19.116 12.112C18.8392 12.3922 18.5098 12.6148 18.1466 12.7672C17.7835 12.9196 17.3938 12.9987 17 13H9C8.86963 12.9984 8.74086 12.9711 8.62108 12.9196C8.50129 12.8681 8.39286 12.7935 8.302 12.7C8.20794 12.609 8.13283 12.5003 8.08099 12.3802C8.02916 12.2601 8.00163 12.1308 8 12C8 11.748 8.11 11.493 8.301 11.302C8.39171 11.2079 8.50021 11.1327 8.6202 11.0809C8.7402 11.029 8.86929 11.0015 9 11H17V9H9C8.21 9 7.459 9.315 6.886 9.889C6.314 10.461 6 11.211 6 12C6 12.789 6.314 13.54 6.888 14.114C7.16401 14.3939 7.49277 14.6164 7.85529 14.7685C8.21781 14.9205 8.60688 14.9992 9 15H17.001C17.6572 14.9995 18.3068 14.8691 18.9123 14.6163C19.5178 14.3635 20.0673 13.9933 20.529 13.527C20.9948 13.0652 21.3644 12.5156 21.6167 11.9101C21.8689 11.3047 21.9988 10.6552 21.9987 9.99929C21.9986 9.34337 21.8686 8.69395 21.6161 8.08854C21.3637 7.48313 20.9939 6.93371 20.528 6.472C20.0674 6.0055 19.5186 5.63515 18.9137 5.38246C18.3087 5.12977 17.6596 4.99976 17.004 5Z" fill="#2D2D2D"/>
</svg>
