<svg width="34" height="34" viewBox="0 0 34 34" fill="none" xmlns="http://www.w3.org/2000/svg">
<path d="M15.1181 5.68271L7.57183 13.2289C5.83895 14.9618 4.88577 17.3047 4.88671 19.8286C4.88671 22.3535 5.83989 24.6963 7.57183 26.4283C9.30472 28.1612 11.6476 29.1143 14.1715 29.1134C16.6954 29.1143 19.0383 28.1612 20.7712 26.4283L28.3136 18.8858L26.428 17.0002L18.8855 24.5427C17.6571 25.7711 15.9826 26.4481 14.1715 26.4471C12.3604 26.4481 10.6859 25.7711 9.45745 24.5427C8.22991 23.3151 7.55298 21.6407 7.55298 19.8286C7.55203 18.0175 8.22897 16.343 9.45745 15.1146L16.9999 7.5721L16.0571 6.62929L17.0009 7.57115L17.0037 7.56833C17.7485 6.82351 18.7507 6.41338 19.8274 6.41527C20.9041 6.41527 21.9091 6.82633 22.6587 7.57398C23.0286 7.94454 23.3213 8.38488 23.5197 8.86944C23.7181 9.354 23.8183 9.87315 23.8145 10.3968C23.8177 10.9218 23.7171 11.4424 23.5184 11.9284C23.3197 12.4145 23.0269 12.8565 22.6568 13.229L15.1143 20.7714C14.9899 20.8928 14.8427 20.9885 14.6813 21.0529C14.5198 21.1173 14.3472 21.1492 14.1734 21.1467C13.9989 21.1496 13.8256 21.1179 13.6635 21.0535C13.5014 20.9891 13.3536 20.8932 13.2287 20.7714C12.9911 20.5338 12.8544 20.1897 12.8544 19.8296C12.8512 19.6553 12.8826 19.4821 12.9469 19.3201C13.0111 19.1581 13.1069 19.0105 13.2287 18.8858L20.7712 11.3433L18.8855 9.45771L11.3431 17.0002C10.5982 17.745 10.1872 18.75 10.1881 19.8314C10.1881 20.91 10.5992 21.9132 11.3431 22.657C12.0869 23.4009 13.091 23.8129 14.1734 23.8129C14.6975 23.8166 15.2172 23.7164 15.7024 23.518C16.1875 23.3196 16.6286 23.027 16.9999 22.657L24.5433 15.1136C25.1615 14.4945 25.651 13.7591 25.9836 12.9499C26.3161 12.1406 26.4851 11.2735 26.4808 10.3986C26.4845 9.52408 26.3149 8.65745 25.9819 7.84877C25.6489 7.0401 25.159 6.30539 24.5405 5.68707C23.922 5.06874 23.1871 4.57904 22.3784 4.24624C21.5696 3.91344 20.7029 3.74412 19.8283 3.74806C18.9542 3.74254 18.0877 3.91072 17.2791 4.24283C16.4705 4.57494 15.736 5.06437 15.1181 5.68271Z" fill="#8F92A1"/>
</svg>
