<svg width="24" height="24" viewBox="0 0 24 24" fill="none" xmlns="http://www.w3.org/2000/svg">
<path d="M8.707 19.7071L18 10.4141L13.586 6.00012L4.293 15.2931C4.16506 15.4212 4.07418 15.5816 4.03 15.7571L3 21.0001L8.242 19.9701C8.418 19.9261 8.579 19.8351 8.707 19.7071ZM21 7.41412C21.3749 7.03907 21.5856 6.53045 21.5856 6.00012C21.5856 5.4698 21.3749 4.96118 21 4.58612L19.414 3.00012C19.0389 2.62518 18.5303 2.41455 18 2.41455C17.4697 2.41455 16.9611 2.62518 16.586 3.00012L15 4.58612L19.414 9.00012L21 7.41412Z" fill="white"/>
</svg>
