<svg width="24" height="24" viewBox="0 0 24 24" fill="none" xmlns="http://www.w3.org/2000/svg">
<path d="M17 6V4C17 3.46957 16.7893 2.96086 16.4142 2.58579C16.0391 2.21071 15.5304 2 15 2H9C8.46957 2 7.96086 2.21071 7.58579 2.58579C7.21071 2.96086 7 3.46957 7 4V6H9V11.586L6.293 13.293C6.19996 13.3857 6.12617 13.4959 6.07589 13.6172C6.0256 13.7386 5.99981 13.8687 6 14V17H11V20L12 22L13 20V17H18V14C18.0002 13.8687 17.9744 13.7386 17.9241 13.6172C17.8738 13.4959 17.8 13.3857 17.707 13.293L15 11.586V6H17Z" fill="#2D2D2D"/>
</svg>
