<svg width="24" height="24" viewBox="0 0 24 24" fill="none" xmlns="http://www.w3.org/2000/svg">
<path fill-rule="evenodd" clip-rule="evenodd" d="M3.66667 3.66667V7H2V3.66667C2 2.74619 2.74619 2 3.66667 2H7V3.66667H3.66667ZM5.33333 5.33333H10.3333V10.3333H5.33333V5.33333ZM18.6667 5.33333V10.3333H13.6667V5.33333H18.6667ZM15.3333 14.5H13.6667V15.3333H11.1667V18.6667H12.8333V17H15.3333V18.6667H17V17H18.6667V14.5H17V12.8333H18.6667V11.1667H17V12.8333H15.3333V11.1667H13.6667V12.8333H15.3333V14.5ZM15.3333 14.5H17V17H15.3333V14.5ZM5.33333 13.6667V18.6667H10.3333V13.6667H5.33333ZM7 7V8.66667H8.66667V7H7ZM15.3333 8.66667V7H17V8.66667H15.3333ZM7 15.3333V17H8.66667V15.3333H7ZM7 11.1667H5.33333V12.8333H7V11.1667ZM9.5 12.8333V11.1667H12.8333V14.5H11.1667V12.8333H9.5ZM12.8333 7H11.1667V10.3333H12.8333V7ZM22 3.66667C22 2.74619 21.2538 2 20.3333 2H17V3.66667H20.3333V7H22V3.66667ZM3.66667 17V20.3333H7V22H3.66667C2.74619 22 2 21.2538 2 20.3333V17H3.66667ZM20.3333 17V20.3333H17V22H20.3333C21.2538 22 22 21.2538 22 20.3333V17H20.3333Z" fill="black"/>
<mask id="mask0" mask-type="alpha" maskUnits="userSpaceOnUse" x="2" y="2" width="20" height="20">
<path fill-rule="evenodd" clip-rule="evenodd" d="M3.66667 3.66667V7H2V3.66667C2 2.74619 2.74619 2 3.66667 2H7V3.66667H3.66667ZM5.33333 5.33333H10.3333V10.3333H5.33333V5.33333ZM18.6667 5.33333V10.3333H13.6667V5.33333H18.6667ZM15.3333 14.5H13.6667V15.3333H11.1667V18.6667H12.8333V17H15.3333V18.6667H17V17H18.6667V14.5H17V12.8333H18.6667V11.1667H17V12.8333H15.3333V11.1667H13.6667V12.8333H15.3333V14.5ZM15.3333 14.5H17V17H15.3333V14.5ZM5.33333 13.6667V18.6667H10.3333V13.6667H5.33333ZM7 7V8.66667H8.66667V7H7ZM15.3333 8.66667V7H17V8.66667H15.3333ZM7 15.3333V17H8.66667V15.3333H7ZM7 11.1667H5.33333V12.8333H7V11.1667ZM9.5 12.8333V11.1667H12.8333V14.5H11.1667V12.8333H9.5ZM12.8333 7H11.1667V10.3333H12.8333V7ZM22 3.66667C22 2.74619 21.2538 2 20.3333 2H17V3.66667H20.3333V7H22V3.66667ZM3.66667 17V20.3333H7V22H3.66667C2.74619 22 2 21.2538 2 20.3333V17H3.66667ZM20.3333 17V20.3333H17V22H20.3333C21.2538 22 22 21.2538 22 20.3333V17H20.3333Z" fill="white"/>
</mask>
<g mask="url(#mask0)">
<rect x="2" y="2" width="20" height="20" fill="white"/>
</g>
</svg>
