<svg width="24" height="24" viewBox="0 0 24 24" fill="none" xmlns="http://www.w3.org/2000/svg">
<path d="M21.426 11.0949L4.426 3.09487C4.38488 2.93159 4.30316 2.78136 4.18843 2.65812C4.07369 2.53488 3.92967 2.44265 3.76975 2.38998C3.60982 2.33731 3.43917 2.32591 3.27366 2.35686C3.10815 2.3878 2.95315 2.46008 2.82305 2.56697C2.69296 2.67386 2.59199 2.8119 2.52953 2.96826C2.46707 3.12463 2.44514 3.29424 2.46579 3.46135C2.48644 3.62845 2.54899 3.78763 2.64763 3.92409C2.74627 4.06055 2.8778 4.16986 3.03 4.24187L4.969 11.9999L3.03 19.7579C2.98333 19.9416 2.98992 20.1348 3.04901 20.3148C3.10811 20.4949 3.21726 20.6544 3.3637 20.7748C3.51014 20.8951 3.68781 20.9712 3.87594 20.9943C4.06406 21.0173 4.25485 20.9863 4.426 20.9049L21.426 12.9049C21.5978 12.8241 21.7431 12.6961 21.8448 12.5359C21.9466 12.3756 22.0006 12.1897 22.0006 11.9999C22.0006 11.81 21.9466 11.6241 21.8448 11.4639C21.7431 11.3036 21.5978 11.1756 21.426 11.0949ZM5.481 18.1969L6.571 13.8369L13 11.9999L6.571 10.1629L5.481 5.80287L18.651 11.9999L5.481 18.1969Z" fill="#8F92A1"/>
</svg>
