<svg width="24" height="24" viewBox="0 0 24 24" fill="none" xmlns="http://www.w3.org/2000/svg">
<path d="M12 2C9.24303 2 7.00003 4.243 7.00003 7C7.00003 9.757 9.24303 12 12 12C14.757 12 17 9.757 17 7C17 4.243 14.757 2 12 2ZM12 10C10.346 10 9.00003 8.654 9.00003 7C9.00003 5.346 10.346 4 12 4C13.654 4 15 5.346 15 7C15 8.654 13.654 10 12 10ZM21 21V20C21 16.141 17.859 13 14 13H10C6.14003 13 3.00003 16.141 3.00003 20V21H5.00003V20C5.00003 17.243 7.24303 15 10 15H14C16.757 15 19 17.243 19 20V21H21Z" fill="white"/>
</svg>
